<?xml version="1.0" encoding="UTF-8"?>
<svg id="Layer_1" data-name="Layer 1" xmlns="http://www.w3.org/2000/svg" viewBox="0 0 48 48">
  <path d="M11,39.4v-5.46l24.65-24.7c.24-.24.5-.41.77-.5s.56-.14.87-.14c.29,0,.57.05.84.14.28.09.55.26.81.5l2.22,2.22c.24.27.41.54.49.82.09.28.13.55.13.82,0,.31-.05.61-.14.87s-.26.52-.5.77l-24.7,24.65h-5.46ZM13.4,37h2.09l19.58-19.63-1-1.05-1.05-1-19.63,19.58s0,2.09,0,2.09ZM39.93,12.36l-2.04-2.04,2.04,2.04ZM34.08,16.32l-1.05-1,2.04,2.04s-1-1.05-1-1.05ZM28.82,39.4c1.88,0,3.74-.54,5.6-1.61,1.86-1.07,2.79-2.54,2.79-4.4,0-1.09-.3-2.03-.91-2.82-.61-.79-1.73-1.55-3.36-2.27l-1.83,1.78c1.37.55,2.33,1.06,2.88,1.53.55.47.82,1.07.82,1.79,0,.99-.64,1.84-1.93,2.55-1.29.71-2.64,1.06-4.07,1.06-.29,0-.56.13-.82.39-.26.26-.39.53-.39.81,0,.32.13.6.39.84s.53.36.82.36ZM12.31,27.28l1.88-1.93c-.9-.23-1.65-.58-2.27-1.05-.62-.47-.92-.9-.92-1.3,0-.46.34-.95,1.01-1.47.68-.52,1.88-1.21,3.61-2.09,2.42-1.24,4.05-2.3,4.9-3.16.85-.87,1.28-1.82,1.28-2.87,0-1.47-.57-2.64-1.72-3.5-1.15-.86-2.61-1.29-4.37-1.29-1.22,0-2.43.2-3.62.6-1.2.4-2.03.94-2.51,1.62-.19.28-.28.57-.28.89,0,.32.15.58.43.79.23.16.52.23.87.22.35-.02.63-.14.83-.38.47-.48,1.09-.83,1.87-1.03.78-.21,1.58-.31,2.42-.31,1.16,0,2.07.23,2.72.7.65.47.98,1.03.98,1.7,0,.59-.31,1.16-.94,1.71-.63.55-1.94,1.3-3.95,2.24-2.22,1.09-3.76,2.05-4.62,2.87-.86.82-1.29,1.75-1.29,2.78,0,.75.28,1.52.83,2.32.56.8,1.51,1.45,2.87,1.97Z" fill="#5f6368" stroke-width="0"/>
</svg>