<?xml version="1.0" encoding="UTF-8"?>
<svg id="Layer_1" data-name="Layer 1" xmlns="http://www.w3.org/2000/svg" viewBox="0 0 48 48">
  <path d="M22.87,41.5v-4h-4v-2.27h4v-5.77c-2.67-.3-4.9-1.46-6.68-3.46-1.79-2.01-2.68-4.35-2.68-7.03,0-2.91,1.02-5.38,3.07-7.42,2.05-2.04,4.52-3.05,7.43-3.05s5.38,1.02,7.43,3.05c2.05,2.04,3.07,4.51,3.07,7.41,0,2.68-.89,5.02-2.68,7.03-1.79,2.01-4.02,3.16-6.68,3.46v5.77h4v2.27h-4v4h-2.27ZM23.99,27.23c2.28,0,4.23-.8,5.83-2.4,1.61-1.6,2.41-3.54,2.41-5.82s-.8-4.23-2.4-5.83c-1.6-1.61-3.54-2.41-5.82-2.41s-4.23.8-5.83,2.4c-1.61,1.6-2.41,3.54-2.41,5.82s.8,4.23,2.4,5.83c1.6,1.61,3.54,2.41,5.82,2.41Z" fill="#5f6368" stroke-width="0"/>
</svg>