<?xml version="1.0" encoding="UTF-8"?>
<svg id="Layer_1" data-name="Layer 1" xmlns="http://www.w3.org/2000/svg" viewBox="0 0 48 48">
  <path d="M.15,29.69v-11.38h1.94v4.34h5.65v-4.34h1.94v11.39h-1.94v-5.11H2.09v5.11s-1.94,0-1.94,0ZM15.88,29.69v-9.45h-3.69v-1.94h9.32v1.94h-3.69v9.45s-1.94,0-1.94,0ZM24.01,29.69v-9.84c0-.45.14-.82.43-1.11.29-.29.66-.44,1.11-.44h9.58c.46,0,.83.15,1.12.44.29.29.43.66.43,1.11v9.84h-1.94v-9.45h-3.43v7.37h-1.94v-7.37h-3.43v9.45s-1.94,0-1.94,0ZM40.31,29.69v-11.38h1.94v9.45h5.6v1.94h-7.53Z" fill="#5f6368" stroke-width="0"/>
</svg>