<?xml version="1.0" encoding="UTF-8"?>
<svg id="Layer_1" data-name="Layer 1" xmlns="http://www.w3.org/2000/svg" viewBox="0 0 48 48">
  <path d="M13.66,29.69c-.42,0-.76-.13-1.03-.4-.27-.27-.4-.61-.4-1.03v-3.26h1.94v2.75h4.47v-9.45h1.94v9.95c0,.42-.13.77-.4,1.03-.27.27-.61.4-1.03.4,0,0-5.48,0-5.48,0ZM25.85,29.69c-.45,0-.82-.15-1.11-.44-.29-.29-.44-.66-.44-1.11v-2.15h1.94v1.75h5.51v-2.98h-6.05c-.38,0-.71-.14-.98-.41-.27-.27-.41-.61-.41-1v-3.51c0-.45.15-.82.44-1.11.29-.29.66-.44,1.11-.44h6.29c.45,0,.82.15,1.11.44.29.29.44.66.44,1.11v2.15h-1.94v-1.75h-5.51v2.98h6.05c.38,0,.71.14.98.41.27.27.41.6.41.98v3.53c0,.45-.15.82-.44,1.11s-.66.44-1.11.44c0,0-6.29,0-6.29,0Z" fill="#5f6368" stroke-width="0"/>
</svg>