<?xml version="1.0" encoding="UTF-8"?>
<svg id="Layer_1" data-name="Layer 1" xmlns="http://www.w3.org/2000/svg" viewBox="0 0 48 48">
  <path d="M24.01,23.37c.9,0,1.66-.32,2.29-.96.63-.64.95-1.41.95-2.3,0-.9-.32-1.66-.96-2.29s-1.41-.95-2.3-.95c-.9,0-1.66.32-2.29.96-.63.64-.95,1.41-.95,2.3,0,.9.32,1.66.96,2.29.64.63,1.41.95,2.3.95ZM24,40.01c4.18-3.73,7.36-7.28,9.55-10.66,2.19-3.38,3.28-6.33,3.28-8.86,0-3.86-1.23-7.03-3.68-9.52-2.45-2.49-5.5-3.73-9.15-3.73s-6.7,1.24-9.15,3.73c-2.45,2.49-3.68,5.66-3.68,9.52,0,2.53,1.11,5.48,3.34,8.86,2.22,3.38,5.39,6.93,9.49,10.66ZM24,43.02c-5.03-4.36-8.81-8.42-11.32-12.18-2.52-3.76-3.77-7.21-3.77-10.35,0-4.62,1.49-8.35,4.48-11.21,2.99-2.86,6.53-4.29,10.62-4.29s7.63,1.43,10.62,4.29c2.99,2.86,4.48,6.59,4.48,11.21,0,3.14-1.26,6.59-3.77,10.35-2.52,3.76-6.29,7.82-11.32,12.18Z" fill="#5f6368" stroke-width="0"/>
</svg>