<?xml version="1.0" encoding="UTF-8"?>
<svg id="Layer_1" data-name="Layer 1" xmlns="http://www.w3.org/2000/svg" viewBox="0 0 48 48">
  <path d="M7.88,39c-.78,0-1.46-.28-2.03-.85-.57-.57-.85-1.25-.85-2.03V11.88c0-.78.28-1.46.85-2.03.57-.57,1.25-.85,2.03-.85h32.23c.78,0,1.46.28,2.03.85s.85,1.25.85,2.03v24.23c0,.78-.28,1.46-.85,2.03-.57.57-1.25.85-2.03.85H7.88ZM24,24.3L7.27,13.23v22.89c0,.18.06.33.17.44.12.12.26.17.44.17h32.23c.18,0,.33-.06.44-.17s.17-.26.17-.44V13.23l-16.73,11.07ZM24,21.92l16.28-10.65H7.77l16.23,10.65ZM7.27,13.23v-1.96,24.85c0,.18.06.33.17.44.12.12.26.17.44.17h-.62V13.23Z" fill="#5f6368" stroke-width="0"/>
</svg>