<?xml version="1.0" encoding="UTF-8"?>
<svg id="Layer_1" data-name="Layer 1" xmlns="http://www.w3.org/2000/svg" viewBox="0 0 48 48">
  <path d="M19.01,40.73h9.91v-2.68l1.3-.5c2.57-.94,4.71-2.28,6.41-4.02,1.71-1.73,2.89-3.58,3.56-5.53H7.81c.67,1.95,1.85,3.8,3.55,5.55,1.7,1.74,3.82,3.08,6.35,4l1.3.5s0,2.68,0,2.68ZM16.74,43v-3.48c-3.33-1.2-6.03-3.04-8.08-5.53-2.05-2.49-3.27-5.25-3.66-8.26h4V8.75l34-3.75v2.04l-22.44,2.47v4.5h22.44v2.02h-22.44v9.7h22.44c-.34,3.01-1.57,5.77-3.69,8.26-2.12,2.49-4.83,4.34-8.13,5.53v3.48h-14.45ZM15.79,14.01h2.75v-4.29l-2.75.3v3.99ZM11.02,14.01h2.75v-3.8l-2.75.34v3.46ZM15.79,25.73h2.75v-9.7h-2.75s0,9.7,0,9.7ZM11.02,25.73h2.75v-9.7h-2.75s0,9.7,0,9.7Z" fill="#5f6368" stroke-width="0"/>
</svg>