<?xml version="1.0" encoding="UTF-8"?>
<svg id="b" data-name="Layer 2" xmlns="http://www.w3.org/2000/svg" viewBox="0 0 128 128">
  <g id="c" data-name="Layer 2">
    <g>
      <path d="M64,128C28.71,128,0,99.29,0,64S28.71,0,64,0s64,28.71,64,64-28.71,64-64,64ZM64,2C29.81,2,2,29.82,2,64s27.81,62,62,62,62-27.81,62-62S98.19,2,64,2ZM64,119.07c-30.37,0-55.07-24.7-55.07-55.07S33.63,8.93,64,8.93s55.07,24.7,55.07,55.07-24.7,55.07-55.07,55.07ZM64,10.93c-29.26,0-53.07,23.81-53.07,53.07s23.81,53.07,53.07,53.07,53.07-23.81,53.07-53.07S93.26,10.93,64,10.93Z" fill="#404564" stroke-width="0"/>
      <circle cx="64" cy="64" r="42.16" fill="pink" stroke-width="0"/>
    </g>
  </g>
</svg>