<svg xmlns="http://www.w3.org/2000/svg">
  <symbol id="icon-arrow-down" viewBox="0 0 48 48">
    <path fill="currentColor" d="M24,30.03l-11.22-11.21,1.58-1.57,9.63,9.63,9.63-9.63,1.58,1.57-11.22,11.21Z"/>
  </symbol>
  <symbol id="icon-arrow-up" viewBox="0 0 48 48">
    <path fill="currentColor" d="M24,19.92l-9.63,9.63-1.58-1.57,11.22-11.21,11.22,11.21-1.58,1.57-9.63-9.63Z"/>
  </symbol>
  <symbol id="icon-code" viewBox="0 0 48 48">
    <path fill="currentColor" d="M16,35.23l-11.31-11.31,11.39-11.37,1.61,1.63-9.74,9.74,9.68,9.68-1.63,1.63ZM31.92,35.31l-1.61-1.63,9.74-9.74-9.68-9.7,1.63-1.63,11.31,11.31s-11.39,11.39-11.39,11.39Z"/>
  </symbol>
  <symbol id="icon-console" viewBox="0 0 48 48">
    <path fill="currentColor" stroke-width="0" d="M9.44,39.44c-1.87,0-3.46-.66-4.78-1.98-1.32-1.32-1.99-2.93-2.01-4.82,0-.28.01-.56.04-.83.03-.27.07-.56.14-.86L7.04,14.16c.43-1.66,1.31-3.01,2.65-4.06,1.33-1.05,2.85-1.57,4.57-1.57h19.5c1.71,0,3.23.53,4.56,1.58,1.33,1.05,2.23,2.4,2.69,4.06l4.2,16.8c.07.3.12.6.17.89.04.29.07.57.07.86,0,1.89-.67,3.49-2.02,4.79-1.35,1.3-2.97,1.96-4.85,1.96-1.31,0-2.51-.34-3.61-1.01-1.1-.68-1.93-1.6-2.49-2.78l-1.42-2.92c-.22-.43-.53-.75-.95-.97-.42-.22-.86-.33-1.33-.33h-9.5c-.47,0-.91.11-1.33.32-.42.21-.72.54-.92.97l-1.43,2.92c-.56,1.19-1.4,2.12-2.51,2.79-1.11.67-2.32,1-3.62,1ZM9.58,37.25c.86,0,1.66-.22,2.38-.67.72-.45,1.28-1.06,1.66-1.85l1.4-2.87c.41-.81,1-1.45,1.74-1.91.75-.46,1.58-.7,2.48-.69h9.5c.91,0,1.74.24,2.48.73.74.49,1.34,1.12,1.8,1.9l1.4,2.85c.39.79.94,1.41,1.66,1.85.72.45,1.51.67,2.37.67,1.28,0,2.39-.43,3.31-1.29.92-.86,1.4-1.93,1.42-3.21,0-.16-.05-.59-.15-1.28l-4.2-16.75c-.31-1.15-.93-2.1-1.86-2.86-.94-.76-2.01-1.14-3.22-1.14H14.25c-1.21,0-2.29.38-3.24,1.13-.95.75-1.55,1.71-1.81,2.88l-4.2,16.75c-.02.13-.07.54-.15,1.23,0,1.3.46,2.38,1.39,3.25.92.87,2.04,1.3,3.34,1.3ZM27.01,21.35c.38,0,.71-.13.98-.39.27-.26.4-.58.4-.97s-.14-.71-.41-.98-.6-.4-.98-.4-.7.14-.96.41c-.25.27-.38.6-.38.98s.13.7.39.96c.26.25.58.38.97.38ZM31.01,17.35c.38,0,.71-.13.98-.39.27-.26.4-.58.4-.97s-.14-.71-.41-.98-.6-.4-.98-.4-.7.14-.96.41c-.25.27-.38.6-.38.98s.13.7.39.96c.26.25.58.38.97.38ZM31.01,25.35c.38,0,.71-.13.98-.39.27-.26.4-.58.4-.97s-.14-.71-.41-.98c-.27-.27-.6-.4-.98-.4-.38,0-.7.14-.96.41-.25.27-.38.6-.38.98s.13.7.39.96c.26.25.58.38.97.38ZM35.01,21.35c.38,0,.71-.13.98-.39.27-.26.4-.58.4-.97,0-.39-.14-.71-.41-.98s-.6-.4-.98-.4-.7.14-.96.41c-.25.27-.38.6-.38.98s.13.7.39.96c.26.25.58.38.97.38ZM17,24.46c.28,0,.52-.09.72-.27.2-.18.3-.41.3-.69v-2.54h2.49c.27,0,.51-.09.71-.27.2-.18.3-.41.3-.69s-.1-.52-.3-.72c-.2-.2-.44-.3-.71-.3h-2.49v-2.49c0-.27-.1-.51-.31-.71-.2-.2-.44-.3-.72-.3s-.5.1-.68.3c-.18.2-.27.44-.27.71v2.49h-2.54c-.28,0-.51.1-.69.31-.18.2-.27.44-.27.72s.09.5.27.68c.18.18.41.27.69.27h2.54v2.54c0,.28.09.51.27.69.18.18.41.27.69.27Z"/>
  </symbol>
  <symbol id="icon-cooking" viewBox="0 0 48 48">
    <path fill="currentColor" d="M10.06,20.69c.03-1.2-.08-2.25-.34-3.13s-.84-2.04-1.75-3.46c-.8-1.24-1.34-2.37-1.6-3.4-.26-1.03-.33-2.21-.19-3.55h2.09c-.08,1.17.04,2.22.34,3.14s.93,2.08,1.88,3.48c.72,1.18,1.21,2.29,1.47,3.33.26,1.04.34,2.24.22,3.59,0,0-2.13,0-2.13,0ZM18.38,20.69c.03-1.2-.09-2.25-.36-3.13-.27-.89-.86-2.04-1.77-3.46-.8-1.24-1.33-2.37-1.59-3.4-.26-1.03-.32-2.21-.19-3.55h2.13c-.08,1.17.03,2.22.32,3.14.29.93.9,2.08,1.83,3.48.74,1.18,1.24,2.29,1.51,3.33.26,1.04.34,2.24.22,3.59h-2.09ZM26.72,20.69c.03-1.2-.09-2.25-.35-3.13-.27-.89-.86-2.04-1.77-3.46-.8-1.24-1.32-2.37-1.57-3.4-.25-1.03-.31-2.21-.18-3.55h2.09c-.08,1.17.03,2.22.33,3.14.3.93.91,2.08,1.84,3.48.74,1.18,1.24,2.29,1.51,3.33.27,1.04.34,2.24.23,3.59,0,0-2.13,0-2.13,0ZM10.13,38.85c-1.41,0-2.59-.48-3.54-1.43-.96-.96-1.43-2.14-1.43-3.54v-8.85h27.74c-.05-1,.17-1.92.68-2.77.51-.84,1.23-1.43,2.18-1.75l8.98-3.05.68,2.06-8.94,3c-.48.17-.83.47-1.05.91-.23.44-.34.91-.34,1.41v9.03c0,1.37-.48,2.55-1.43,3.52-.96.97-2.13,1.46-3.51,1.46H10.13ZM10.13,36.65h20c.76,0,1.41-.27,1.95-.81.54-.54.8-1.2.8-1.97v-6.65H7.35v6.65c0,.79.27,1.45.8,1.98.54.54,1.2.8,1.98.8Z"/>
  </symbol>
  <symbol id="icon-css" viewBox="0 0 48 48">
    <path fill="currentColor" d="M20.87,29.69c-.45,0-.82-.15-1.11-.44-.29-.29-.44-.66-.44-1.11v-2.15h1.94v1.75h5.51v-2.98h-6.05c-.38,0-.71-.14-.98-.41-.27-.27-.41-.61-.41-1v-3.51c0-.45.15-.82.44-1.11.29-.29.66-.44,1.11-.44h6.29c.45,0,.82.15,1.11.44s.44.66.44,1.11v2.15h-1.94v-1.75h-5.51v2.98h6.05c.38,0,.71.14.98.41.27.27.41.6.41.98v3.53c0,.45-.15.82-.44,1.11s-.66.44-1.11.44c0,0-6.29,0-6.29,0ZM33.78,29.69c-.45,0-.82-.15-1.11-.44-.29-.29-.44-.66-.44-1.11v-2.15h1.94v1.75h5.51v-2.98h-6.05c-.38,0-.71-.14-.98-.41-.27-.27-.41-.61-.41-1v-3.51c0-.45.15-.82.44-1.11.29-.29.66-.44,1.11-.44h6.29c.45,0,.82.15,1.11.44.29.29.44.66.44,1.11v2.15h-1.94v-1.75h-5.51v2.98h6.05c.38,0,.71.14.98.41.27.27.41.6.41.98v3.53c0,.45-.15.82-.44,1.11-.29.29-.66.44-1.11.44,0,0-6.29,0-6.29,0ZM7.97,29.69c-.45,0-.82-.15-1.11-.44-.29-.29-.44-.66-.44-1.11v-8.29c0-.45.15-.82.44-1.11s.66-.44,1.11-.44h6.29c.45,0,.82.15,1.11.44s.44.66.44,1.11v2.15h-1.94v-1.75h-5.51v7.51h5.51v-1.75h1.94v2.15c0,.45-.15.82-.44,1.11s-.66.44-1.11.44c0,0-6.29,0-6.29,0Z"/>
  </symbol>
  <symbol id="icon-draw" viewBox="0 0 48 48">
    <path fill="currentColor" d="M11,39.4v-5.46l24.65-24.7c.24-.24.5-.41.77-.5s.56-.14.87-.14c.29,0,.57.05.84.14.28.09.55.26.81.5l2.22,2.22c.24.27.41.54.49.82.09.28.13.55.13.82,0,.31-.05.61-.14.87s-.26.52-.5.77l-24.7,24.65h-5.46ZM13.4,37h2.09l19.58-19.63-1-1.05-1.05-1-19.63,19.58s0,2.09,0,2.09ZM39.93,12.36l-2.04-2.04,2.04,2.04ZM34.08,16.32l-1.05-1,2.04,2.04s-1-1.05-1-1.05ZM28.82,39.4c1.88,0,3.74-.54,5.6-1.61,1.86-1.07,2.79-2.54,2.79-4.4,0-1.09-.3-2.03-.91-2.82-.61-.79-1.73-1.55-3.36-2.27l-1.83,1.78c1.37.55,2.33,1.06,2.88,1.53.55.47.82,1.07.82,1.79,0,.99-.64,1.84-1.93,2.55-1.29.71-2.64,1.06-4.07,1.06-.29,0-.56.13-.82.39-.26.26-.39.53-.39.81,0,.32.13.6.39.84s.53.36.82.36ZM12.31,27.28l1.88-1.93c-.9-.23-1.65-.58-2.27-1.05-.62-.47-.92-.9-.92-1.3,0-.46.34-.95,1.01-1.47.68-.52,1.88-1.21,3.61-2.09,2.42-1.24,4.05-2.3,4.9-3.16.85-.87,1.28-1.82,1.28-2.87,0-1.47-.57-2.64-1.72-3.5-1.15-.86-2.61-1.29-4.37-1.29-1.22,0-2.43.2-3.62.6-1.2.4-2.03.94-2.51,1.62-.19.28-.28.57-.28.89,0,.32.15.58.43.79.23.16.52.23.87.22.35-.02.63-.14.83-.38.47-.48,1.09-.83,1.87-1.03.78-.21,1.58-.31,2.42-.31,1.16,0,2.07.23,2.72.7.65.47.98,1.03.98,1.7,0,.59-.31,1.16-.94,1.71-.63.55-1.94,1.3-3.95,2.24-2.22,1.09-3.76,2.05-4.62,2.87-.86.82-1.29,1.75-1.29,2.78,0,.75.28,1.52.83,2.32.56.8,1.51,1.45,2.87,1.97Z"/>
  </symbol>
  <symbol id="icon-noodles" viewBox="0 0 48 48">
    <path fill="currentColor" d="M19.01,40.73h9.91v-2.68l1.3-.5c2.57-.94,4.71-2.28,6.41-4.02,1.71-1.73,2.89-3.58,3.56-5.53H7.81c.67,1.95,1.85,3.8,3.55,5.55,1.7,1.74,3.82,3.08,6.35,4l1.3.5s0,2.68,0,2.68ZM16.74,43v-3.48c-3.33-1.2-6.03-3.04-8.08-5.53-2.05-2.49-3.27-5.25-3.66-8.26h4V8.75l34-3.75v2.04l-22.44,2.47v4.5h22.44v2.02h-22.44v9.7h22.44c-.34,3.01-1.57,5.77-3.69,8.26-2.12,2.49-4.83,4.34-8.13,5.53v3.48h-14.45ZM15.79,14.01h2.75v-4.29l-2.75.3v3.99ZM11.02,14.01h2.75v-3.8l-2.75.34v3.46ZM15.79,25.73h2.75v-9.7h-2.75s0,9.7,0,9.7ZM11.02,25.73h2.75v-9.7h-2.75s0,9.7,0,9.7Z"/>
  </symbol>
  <symbol id="icon-musicnote" viewBox="0 0 48 48">
    <path fill="currentColor" d="M19.8,40.81c-1.85,0-3.42-.64-4.71-1.93-1.29-1.29-1.93-2.85-1.93-4.71s.64-3.42,1.93-4.71c1.29-1.29,2.85-1.93,4.71-1.93.88,0,1.69.14,2.44.43.74.29,1.39.69,1.93,1.23V7.19h10.66v5.61h-8.39v21.37c0,1.85-.64,3.42-1.93,4.71-1.29,1.29-2.85,1.93-4.71,1.93Z"/>
  </symbol>
  <symbol id="icon-mail" viewBox="0 0 48 48">
    <path fill="currentColor" d="M7.88,39c-.78,0-1.46-.28-2.03-.85-.57-.57-.85-1.25-.85-2.03V11.88c0-.78.28-1.46.85-2.03.57-.57,1.25-.85,2.03-.85h32.23c.78,0,1.46.28,2.03.85s.85,1.25.85,2.03v24.23c0,.78-.28,1.46-.85,2.03-.57.57-1.25.85-2.03.85H7.88ZM24,24.3L7.27,13.23v22.89c0,.18.06.33.17.44.12.12.26.17.44.17h32.23c.18,0,.33-.06.44-.17s.17-.26.17-.44V13.23l-16.73,11.07ZM24,21.92l16.28-10.65H7.77l16.23,10.65ZM7.27,13.23v-1.96,24.85c0,.18.06.33.17.44.12.12.26.17.44.17h-.62V13.23Z"/>
  </symbol>
  <symbol id="icon-location" viewBox="0 0 48 48">
    <path fill="currentColor" d="M24.01,23.37c.9,0,1.66-.32,2.29-.96.63-.64.95-1.41.95-2.3,0-.9-.32-1.66-.96-2.29s-1.41-.95-2.3-.95c-.9,0-1.66.32-2.29.96-.63.64-.95,1.41-.95,2.3,0,.9.32,1.66.96,2.29.64.63,1.41.95,2.3.95ZM24,40.01c4.18-3.73,7.36-7.28,9.55-10.66,2.19-3.38,3.28-6.33,3.28-8.86,0-3.86-1.23-7.03-3.68-9.52-2.45-2.49-5.5-3.73-9.15-3.73s-6.7,1.24-9.15,3.73c-2.45,2.49-3.68,5.66-3.68,9.52,0,2.53,1.11,5.48,3.34,8.86,2.22,3.38,5.39,6.93,9.49,10.66ZM24,43.02c-5.03-4.36-8.81-8.42-11.32-12.18-2.52-3.76-3.77-7.21-3.77-10.35,0-4.62,1.49-8.35,4.48-11.21,2.99-2.86,6.53-4.29,10.62-4.29s7.63,1.43,10.62,4.29c2.99,2.86,4.48,6.59,4.48,11.21,0,3.14-1.26,6.59-3.77,10.35-2.52,3.76-6.29,7.82-11.32,12.18Z"/>
  </symbol>
  <symbol id="icon-javascript" viewBox="0 0 48 48">
    <path fill="currentColor" d="M13.66,29.69c-.42,0-.76-.13-1.03-.4-.27-.27-.4-.61-.4-1.03v-3.26h1.94v2.75h4.47v-9.45h1.94v9.95c0,.42-.13.77-.4,1.03-.27.27-.61.4-1.03.4,0,0-5.48,0-5.48,0ZM25.85,29.69c-.45,0-.82-.15-1.11-.44-.29-.29-.44-.66-.44-1.11v-2.15h1.94v1.75h5.51v-2.98h-6.05c-.38,0-.71-.14-.98-.41-.27-.27-.41-.61-.41-1v-3.51c0-.45.15-.82.44-1.11.29-.29.66-.44,1.11-.44h6.29c.45,0,.82.15,1.11.44.29.29.44.66.44,1.11v2.15h-1.94v-1.75h-5.51v2.98h6.05c.38,0,.71.14.98.41.27.27.41.6.41.98v3.53c0,.45-.15.82-.44,1.11s-.66.44-1.11.44c0,0-6.29,0-6.29,0Z"/>
  </symbol>
  <symbol id="icon-html" viewBox="0 0 48 48">
    <path fill="currentColor" d="M.15,29.69v-11.38h1.94v4.34h5.65v-4.34h1.94v11.39h-1.94v-5.11H2.09v5.11s-1.94,0-1.94,0ZM15.88,29.69v-9.45h-3.69v-1.94h9.32v1.94h-3.69v9.45s-1.94,0-1.94,0ZM24.01,29.69v-9.84c0-.45.14-.82.43-1.11.29-.29.66-.44,1.11-.44h9.58c.46,0,.83.15,1.12.44.29.29.43.66.43,1.11v9.84h-1.94v-9.45h-3.43v7.37h-1.94v-7.37h-3.43v9.45s-1.94,0-1.94,0ZM40.31,29.69v-11.38h1.94v9.45h5.6v1.94h-7.53Z"/>
  </symbol>
  <symbol id="icon-femalegender" viewBox="0 0 48 48">
    <path fill="currentColor" d="M22.87,41.5v-4h-4v-2.27h4v-5.77c-2.67-.3-4.9-1.46-6.68-3.46-1.79-2.01-2.68-4.35-2.68-7.03,0-2.91,1.02-5.38,3.07-7.42,2.05-2.04,4.52-3.05,7.43-3.05s5.38,1.02,7.43,3.05c2.05,2.04,3.07,4.51,3.07,7.41,0,2.68-.89,5.02-2.68,7.03-1.79,2.01-4.02,3.16-6.68,3.46v5.77h4v2.27h-4v4h-2.27ZM23.99,27.23c2.28,0,4.23-.8,5.83-2.4,1.61-1.6,2.41-3.54,2.41-5.82s-.8-4.23-2.4-5.83c-1.6-1.61-3.54-2.41-5.82-2.41s-4.23.8-5.83,2.4c-1.61,1.6-2.41,3.54-2.41,5.82s.8,4.23,2.4,5.83c1.6,1.61,3.54,2.41,5.82,2.41Z"/>
  </symbol>
  <symbol id="icon-education" viewBox="0 0 48 48">
    <path fill="currentColor" d="M23.97,39.69l-13.36-7.32v-10.85l-6.53-3.53L23.97,7.15l19.95,10.85v14.27h-2.27v-12.95l-4.32,2.2v10.85s-13.37,7.32-13.37,7.32ZM23.97,26.27l15.17-8.27-15.17-8.16-15.11,8.16s15.11,8.27,15.11,8.27ZM23.97,37.12l11.1-6.1v-8.11l-11.1,5.94-11.1-6.02v8.19s11.1,6.1,11.1,6.1Z"/>
  </symbol>

  <symbol id="icon-background" viewBox="0 0 128 128">
    <path d="M64,128C28.71,128,0,99.29,0,64S28.71,0,64,0s64,28.71,64,64-28.71,64-64,64ZM64,2C29.81,2,2,29.82,2,64s27.81,62,62,62,62-27.81,62-62S98.19,2,64,2ZM64,119.07c-30.37,0-55.07-24.7-55.07-55.07S33.63,8.93,64,8.93s55.07,24.7,55.07,55.07-24.7,55.07-55.07,55.07ZM64,10.93c-29.26,0-53.07,23.81-53.07,53.07s23.81,53.07,53.07,53.07,53.07-23.81,53.07-53.07S93.26,10.93,64,10.93Z" fill="#404564" stroke-width="0"/>
    <circle cx="64" cy="64" r="42.16" fill="pink" stroke-width="0"/>
  </symbol>

  
  <symbol id="icon-github" viewBox="0 0 48 48">
    <path fill="currentColor" d="M24,.3C10.75.3,0,11.04,0,24.3,0,34.9,6.88,43.9,16.41,47.07c1.2.22,1.59-.52,1.59-1.15v-4.47c-6.68,1.45-8.07-2.83-8.07-2.83-1.09-2.77-2.67-3.51-2.67-3.51-2.18-1.49.17-1.46.17-1.46,2.41.17,3.68,2.47,3.68,2.47,2.14,3.67,5.61,2.61,6.98,1.99.21-1.55.84-2.61,1.52-3.21-5.33-.61-10.93-2.67-10.93-11.86,0-2.62.94-4.76,2.47-6.44-.25-.61-1.07-3.05.23-6.35,0,0,2.02-.64,6.6,2.46,1.91-.53,3.97-.8,6.01-.81,2.04.01,4.09.28,6.01.81,4.58-3.1,6.59-2.46,6.59-2.46,1.31,3.31.48,5.75.24,6.35,1.54,1.68,2.47,3.82,2.47,6.44,0,9.22-5.61,11.25-10.96,11.84.86.74,1.65,2.2,1.65,4.44v6.59c0,.64.38,1.39,1.6,1.15,9.53-3.18,16.4-12.17,16.4-22.77C48,11.04,37.25.3,24,.3Z"/>
  </symbol>
  
  <symbol id="icon-x" viewBox="0 0 16 16">
    <path fill="currentColor" d="M12.6.75h2.454l-5.36 6.142L16 15.25h-4.937l-3.867-5.07-4.425 5.07H.316l5.733-6.57L0 .75h5.063l3.495 4.633L12.601.75Zm-.86 13.028h1.36L4.323 2.145H2.865z"/>
  </symbol>
  
  <symbol id="icon-instagram" viewBox="0 0 16 16">
    <path fill="currentColor" d="M8 0C5.829 0 5.556.01 4.703.048 3.85.088 3.269.222 2.76.42a3.9 3.9 0 0 0-1.417.923A3.9 3.9 0 0 0 .42 2.76C.222 3.268.087 3.85.048 4.7.01 5.555 0 5.827 0 8.001c0 2.172.01 2.444.048 3.297.04.852.174 1.433.372 1.942.205.526.478.972.923 1.417.444.445.89.719 1.416.923.51.198 1.09.333 1.942.372C5.555 15.99 5.827 16 8 16s2.444-.01 3.298-.048c.851-.04 1.434-.174 1.943-.372a3.9 3.9 0 0 0 1.416-.923c.445-.445.718-.891.923-1.417.197-.509.332-1.09.372-1.942C15.99 10.445 16 10.173 16 8s-.01-2.445-.048-3.299c-.04-.851-.175-1.433-.372-1.941a3.9 3.9 0 0 0-.923-1.417A3.9 3.9 0 0 0 13.24.42c-.51-.198-1.092-.333-1.943-.372C10.443.01 10.172 0 7.998 0zm-.717 1.442h.718c2.136 0 2.389.007 3.232.046.78.035 1.204.166 1.486.275.373.145.64.319.92.599s.453.546.598.92c.11.281.24.705.275 1.485.039.843.047 1.096.047 3.231s-.008 2.389-.047 3.232c-.035.78-.166 1.203-.275 1.485a2.5 2.5 0 0 1-.599.919c-.28.28-.546.453-.92.598-.28.11-.704.24-1.485.276-.843.038-1.096.047-3.232.047s-2.39-.009-3.233-.047c-.78-.036-1.203-.166-1.485-.276a2.5 2.5 0 0 1-.92-.598 2.5 2.5 0 0 1-.6-.92c-.109-.281-.24-.705-.275-1.485-.038-.843-.046-1.096-.046-3.233s.008-2.388.046-3.231c.036-.78.166-1.204.276-1.486.145-.373.319-.64.599-.92s.546-.453.92-.598c.282-.11.705-.24 1.485-.276.738-.034 1.024-.044 2.515-.045zm4.988 1.328a.96.96 0 1 0 0 1.92.96.96 0 0 0 0-1.92m-4.27 1.122a4.109 4.109 0 1 0 0 8.217 4.109 4.109 0 0 0 0-8.217m0 1.441a2.667 2.667 0 1 1 0 5.334 2.667 2.667 0 0 1 0-5.334"/>
  </symbol>
  
  <symbol id="icon-bsky" viewBox="0 0 16 16">
    <path fill="currentColor" d="M8 7.2c-0.7246666666666666 -1.409333333333333 -2.6973333333333334 -4.035333333333333 -4.532 -5.33C1.7106666666666666 0.6293333333333333 1.0406666666666666 0.844 0.6013333333333333 1.0433333333333332 0.09266666666666667 1.2719999999999998 0 2.0533333333333332 0 2.5119999999999996c0 0.45999999999999996 0.252 3.7666666666666666 0.416 4.319333333333333 0.5433333333333332 1.824 2.4753333333333334 2.44 4.255333333333333 2.2426666666666666 0.09066666666666667 -0.013333333333333332 0.18333333333333335 -0.026 0.2766666666666666 -0.03733333333333333 -0.092 0.014666666666666665 -0.184 0.026666666666666665 -0.2766666666666666 0.03733333333333333 -2.6079999999999997 0.3866666666666666 -4.924666666666666 1.3366666666666664 -1.8866666666666667 4.718666666666667 3.3419999999999996 3.46 4.58 -0.742 5.215333333333334 -2.872 0.6353333333333333 2.13 1.3666666666666665 6.180666666666667 5.155333333333333 2.872 2.844666666666667 -2.872 0.7813333333333332 -4.332 -1.8266666666666667 -4.718666666666667a5.827333333333333 5.827333333333333 0 0 1 -0.2766666666666666 -0.03733333333333333c0.09333333333333334 0.011333333333333334 0.186 0.023999999999999997 0.2766666666666666 0.03733333333333333 1.7799999999999998 0.19799999999999998 3.7119999999999997 -0.41866666666666663 4.255333333333333 -2.2426666666666666 0.16399999999999998 -0.5519999999999999 0.416 -3.86 0.416 -4.318666666666666 0 -0.45999999999999996 -0.09266666666666667 -1.2406666666666666 -0.6013333333333333 -1.4706666666666666 -0.43933333333333335 -0.19866666666666666 -1.1093333333333333 -0.41333333333333333 -2.8666666666666663 0.8266666666666667C10.697333333333333 3.1653333333333333 8.724666666666666 5.791333333333332 8 7.2Z"/>
  </symbol>
  
  <symbol id="icon-cara" viewBox="0 0 16 16">
    <path fill="currentColor" d="M12.7,5.3l2.3-3.1C11.4-.7,5.8-.5,2.6,3.1c-1.1,1.2-1.7,2.8-1.8,4.7-.1,2.6,1.1,5.1,2.9,6.4,3.5,2.5,8.2,1.9,11.6-.5l-2.1-3.3c-2.5,1.9-7,1.7-7.3-2.1-.3-3.8,3.9-4.9,6.8-3Z"/>
  </symbol>
  
  <symbol id="icon-linkedin" viewBox="0 0 48 48">
    <path fill="currentColor" d="M11.17,15.44H1.54c-.43,0-.77.35-.77.77v30.96c0,.43.35.77.77.77h9.64c.43,0,.77-.35.77-.77v-30.96c0-.43-.35-.77-.77-.77Z"/>
    <path fill="currentColor" d="M6.36.05C2.85.05,0,2.9,0,6.4s2.85,6.35,6.36,6.35,6.35-2.85,6.35-6.35c0-3.5-2.85-6.35-6.35-6.35Z"/>
    <path fill="currentColor" d="M35.68,14.67c-3.87,0-6.73,1.66-8.47,3.55v-2.01c0-.43-.35-.77-.77-.77h-9.23c-.43,0-.77.35-.77.77v30.96c0,.43.35.77.77.77h9.61c.43,0,.77-.35.77-.77v-15.32c0-5.16,1.4-7.17,5-7.17,3.92,0,4.23,3.22,4.23,7.44v15.05c0,.43.35.77.77.77h9.62c.43,0,.77-.35.77-.77v-16.98c0-7.67-1.46-15.52-12.32-15.52Z"/>
  </symbol>
</svg>