<?xml version="1.0" encoding="UTF-8"?>
<svg id="Layer_2" data-name="Layer 2" xmlns="http://www.w3.org/2000/svg" viewBox="0 0 110.42 120.28">
  <g id="Layer_2-2" data-name="Layer 2">
    <path d="M82.02,0l.08,70.08L35.78,16.98c-1.06-1.22-2.63-1.87-4.25-1.78-2.68.14-5.73.22-9.17.22-.53,0-1.03,0-1.53,0v67.41c0,5.1-.21,8.92-.64,11.47-.43,2.55-1.27,4.44-2.55,5.67-.77.74-2.05.2-2.05-.87v-13.4c.06-1.59.1-3.37.1-5.35V26.06c0-1.2-.03-2.27-.1-3.22v-10.17c0-1.4,1.13-2.53,2.53-2.53h15.95V0H0v120.28h28.4l-.26-71.92,50.36,55.02c1.07,1.17,2.61,1.79,4.19,1.69.95-.06,1.69-.08,2.23-.08,1.1,0,2.5.09,4.2.25V37.46c0-5.1.21-8.92.64-11.47.42-2.55,1.27-4.44,2.55-5.67h0c.95-.91,2.52-.24,2.52,1.07v86.2c0,1.4-1.13,2.53-2.53,2.53h-12.09v10.15h30.22V0h-28.4Z" fill="#db8291" stroke-width="0"/>
  </g>
</svg>